<svg width="32" height="32" viewBox="0 0 32 32" fill="none" xmlns="http://www.w3.org/2000/svg">
<path d="M20.7081 19.0346H19.6241C19.3268 19.0346 19.0548 19.2026 18.9228 19.468L17.9214 21.4706C17.7774 21.76 17.3641 21.76 17.2201 21.4706L14.7708 16.5706C14.6281 16.2866 14.2254 16.28 14.0748 16.56L12.9601 18.6226C12.8228 18.876 12.5574 19.0346 12.2694 19.0346H11.2921" stroke="white" stroke-width="2" stroke-linecap="round" stroke-linejoin="round"/>
<path d="M6.55874 15.9999H5.33474C3.62541 15.9999 2.35741 17.5866 2.73341 19.2533L3.63608 23.2533C3.91074 24.4693 4.99074 25.3333 6.23741 25.3333H7.83208C8.26008 25.3333 8.57608 24.9373 8.48274 24.5199L6.76008 16.8919C5.42274 10.9679 9.92674 5.33325 16.0001 5.33325V5.33325V5.33325C22.0734 5.33325 26.5774 10.9679 25.2401 16.8919L23.5187 24.5199C23.4241 24.9373 23.7414 25.3333 24.1681 25.3333H25.7627C27.0094 25.3333 28.0894 24.4693 28.3641 23.2533L29.2667 19.2533C29.6427 17.5866 28.3747 15.9999 26.6654 15.9999H25.4414" stroke="white" stroke-width="2" stroke-linecap="round" stroke-linejoin="round"/>
</svg>
