<svg width="40" height="40" viewBox="0 0 40 40" fill="none" xmlns="http://www.w3.org/2000/svg">
<path d="M38.125 19.8875C38.1494 23.0541 37.3398 26.1714 35.7774 28.9258C35.575 29.2836 35.3607 29.6336 35.1344 29.9758C35.0225 30.1497 34.8772 30.2997 34.7069 30.4171C34.5367 30.5344 34.3448 30.6168 34.1424 30.6594C33.94 30.702 33.7312 30.7041 33.5281 30.6654C33.3249 30.6267 33.1315 30.5481 32.9589 30.4341C32.7864 30.3201 32.6382 30.173 32.523 30.0012C32.4077 29.8295 32.3277 29.6366 32.2875 29.4338C32.2474 29.2309 32.2479 29.0221 32.2891 28.8194C32.3303 28.6168 32.4113 28.4243 32.5274 28.2532C34.0185 25.9896 34.8685 23.3643 34.987 20.6563C35.1054 17.9483 34.4879 15.2588 33.2001 12.8737C31.9123 10.4886 30.0022 8.49702 27.673 7.11063C25.3438 5.72424 22.6825 4.99487 19.9719 5.00004C14.7618 5.01019 10.1422 7.74535 7.45706 11.8321C5.85189 14.2702 4.99772 17.1259 5.0005 20.045C5.00327 22.964 5.86288 25.8181 7.47269 28.2532C7.70092 28.5991 7.78239 29.0215 7.69917 29.4275C7.61595 29.8335 7.37486 30.1898 7.02894 30.418C6.68302 30.6462 6.2606 30.7277 5.85461 30.6445C5.44863 30.5613 5.09233 30.3202 4.8641 29.9743C3.0791 27.2654 2.05381 24.1272 1.89521 20.887C1.73662 17.6468 2.45053 14.4234 3.96245 11.5532C5.47437 8.68299 7.72889 6.27115 10.4907 4.56935C13.2526 2.86755 16.4206 1.93816 19.6641 1.87816C19.7782 1.87582 19.8914 1.87504 20.0047 1.87504C24.7949 1.86517 29.3933 3.75631 32.7905 7.13335C36.1878 10.5104 38.1063 15.0974 38.125 19.8875V19.8875Z" fill="#F7F8FA"/>
<path d="M9.06588 22.7943L11.8978 36.8818C12.0678 37.7275 12.8911 38.2753 13.7368 38.1053C14.5825 37.9353 15.1303 37.1119 14.9603 36.2662L12.1284 22.1787C11.9584 21.333 11.135 20.7853 10.2893 20.9553C9.44363 21.1253 8.89588 21.9487 9.06588 22.7943Z" fill="white"/>
<path d="M11.8438 36.5642L11.1258 36.7087C10.059 36.9235 8.95038 36.7226 8.02677 36.1471C7.10316 35.5716 6.43432 34.6649 6.15706 33.6126C6.13597 33.5314 6.11644 33.4501 6.10003 33.3673L5.07112 28.2556C4.84815 27.146 5.07485 25.9932 5.70141 25.0507C6.32796 24.1081 7.3031 23.4529 8.41253 23.229L9.1305 23.0845L10.3899 29.3407L11.8438 36.5642Z" fill="#494D4B"/>
<path d="M11.8438 36.564L11.1259 36.7085C10.059 36.9234 8.95043 36.7225 8.02682 36.1469C7.1032 35.5714 6.43437 34.6648 6.1571 33.6125C7.67448 32.2981 9.08951 30.87 10.3899 29.3406L11.8438 36.564Z" fill="#494D4B"/>
<path d="M36.1477 27.0876L35.7774 28.9259C35.575 29.2837 35.3607 29.6337 35.1344 29.9759C35.0225 30.1499 34.8772 30.2998 34.7069 30.4172C34.5366 30.5345 34.3448 30.6169 34.1424 30.6595C33.94 30.7022 33.7312 30.7042 33.5281 30.6655C33.3249 30.6268 33.1315 30.5482 32.9589 30.4342C32.7864 30.3202 32.6382 30.1731 32.5229 30.0014C32.4077 29.8296 32.3277 29.6368 32.2875 29.4339C32.2474 29.231 32.2479 29.0222 32.2891 28.8195C32.3303 28.6169 32.4112 28.4244 32.5274 28.2533C33.5865 26.6504 34.3258 24.8579 34.7047 22.9744C35.2927 23.467 35.7371 24.109 35.991 24.8328C36.245 25.5567 36.2991 26.3356 36.1477 27.0876Z" fill="#494D4B"/>
<path d="M34.2953 8.82973L32.0539 11.0711C30.6573 9.18253 28.836 7.64894 26.7371 6.59429C24.6383 5.53965 22.3208 4.99352 19.9719 5.00005C14.7617 5.0102 10.1422 7.74536 7.45703 11.8321L5.18359 9.55864C6.82274 7.2294 8.98843 5.31987 11.5046 3.98529C14.0207 2.65072 16.8163 1.92878 19.6641 1.87817C19.7781 1.87583 19.8914 1.87505 20.0047 1.87505C22.7591 1.86887 25.4786 2.49226 27.9553 3.69759C30.4321 4.90292 32.6006 6.65832 34.2953 8.82973V8.82973Z" fill="#FF6400"/>
<path d="M27.8464 22.1635L25.0145 36.251C24.8445 37.0967 25.3922 37.92 26.2379 38.09C27.0836 38.26 27.907 37.7123 28.077 36.8666L30.9089 22.7791C31.0789 21.9334 30.5311 21.11 29.6854 20.94C28.8397 20.77 28.0164 21.3178 27.8464 22.1635Z" fill="white"/>
<path d="M34.9289 28.2556L33.9 33.3673C33.6766 34.4768 33.0216 35.4522 32.0791 36.0788C31.1366 36.7055 29.9838 36.932 28.8742 36.7087L28.1562 36.5642L28.9 32.8712L30.8695 23.0845L31.5875 23.229C32.6968 23.4532 33.672 24.1081 34.2992 25.0501C34.3856 25.18 34.4646 25.3145 34.5359 25.4532C34.9817 26.3155 35.1203 27.3039 34.9289 28.2556V28.2556Z" fill="#494D4B"/>
<path d="M34.9289 28.2555L33.9 33.3672C33.6766 34.4767 33.0216 35.4521 32.0791 36.0787C31.1366 36.7054 29.9838 36.9319 28.8742 36.7086L28.1562 36.5641L28.9 32.8711C31.0403 30.6086 32.9299 28.1215 34.5359 25.4531C34.9817 26.3154 35.1203 27.3038 34.9289 28.2555V28.2555Z" fill="#494D4B"/>
</svg>
