<svg width="96" height="26" viewBox="0 0 96 26" fill="none" xmlns="http://www.w3.org/2000/svg">
<path d="M1.60034 11.0758C0.717145 11.0758 0 11.5037 0 12.0325V13.9682C0 14.4963 0.717145 14.925 1.60034 14.925C2.48354 14.925 3.19948 14.4963 3.19948 13.9682V12.0325C3.19948 11.5037 2.48354 11.0758 1.60034 11.0758Z" fill="white"/>
<path d="M7.78638 4.66256C6.90318 4.66256 6.18604 5.09049 6.18604 5.61928V20.3807C6.18604 20.9095 6.90318 21.3374 7.78638 21.3374C8.66957 21.3374 9.38672 20.9095 9.38672 20.3807V5.61928C9.38672 5.09049 8.66957 4.66256 7.78638 4.66256Z" fill="white"/>
<path d="M13.9722 7.9412C13.089 7.9412 12.3718 8.36985 12.3718 8.89792V17.1021C12.3718 17.6301 13.089 18.0588 13.9722 18.0588C14.8554 18.0588 15.5725 17.6301 15.5725 17.1021V8.89792C15.5725 8.36985 14.8554 7.9412 13.9722 7.9412Z" fill="white"/>
<path d="M20.1596 1.71964C19.2764 1.71964 18.5604 2.14757 18.5604 2.67636V23.3243C18.5604 23.8524 19.2764 24.2811 20.1596 24.2811C21.0428 24.2811 21.7599 23.8524 21.7599 23.3243V2.67636C21.7599 2.14757 21.044 1.71964 20.1596 1.71964Z" fill="white"/>
<path d="M26.3466 10.449C25.4634 10.449 24.7462 10.8769 24.7462 11.4057V14.595C24.7462 15.1231 25.4634 15.5517 26.3466 15.5517C27.2298 15.5517 27.9469 15.1231 27.9469 14.595V11.4057C27.9469 10.8769 27.2298 10.449 26.3466 10.449Z" fill="white"/>
<path d="M32.5326 4.83836C31.6494 4.83836 30.9335 5.26629 30.9335 5.79508V20.2057C30.9335 20.7337 31.6494 21.1624 32.5326 21.1624C33.4158 21.1624 34.133 20.7337 34.133 20.2057V5.79508C34.133 5.26629 33.4158 4.83836 32.5326 4.83836Z" fill="white"/>
<path d="M38.845 1.71964C38.8426 1.71964 38.8377 1.71964 38.8353 1.71964C37.9558 1.71964 37.241 2.14397 37.235 2.66988L37.0052 23.3179C36.998 23.8459 37.7103 24.2775 38.5947 24.2811C38.5971 24.2811 38.6019 24.2811 38.6043 24.2811C39.4839 24.2811 40.1986 23.8567 40.2047 23.3301L40.4345 2.68285C40.4417 2.15406 39.7306 1.72324 38.845 1.71964Z" fill="white"/>
<path d="M44.9056 0C44.0224 0 43.3053 0.42793 43.3053 0.956719V25.0433C43.3053 25.5721 44.0224 26 44.9056 26C45.7888 26 46.506 25.5721 46.506 25.0433V0.956719C46.506 0.42793 45.7888 0 44.9056 0Z" fill="white"/>
<path d="M51.093 5.80587C50.2098 5.80587 49.4939 6.2338 49.4939 6.76259V19.2374C49.4939 19.7662 50.2098 20.1941 51.093 20.1941C51.9762 20.1941 52.6934 19.7662 52.6934 19.2374V6.76259C52.6934 6.2338 51.9762 5.80587 51.093 5.80587Z" fill="white"/>
<path d="M57.2801 8.89793C56.397 8.89793 55.6798 9.32586 55.6798 9.85465V16.1461C55.6798 16.6741 56.397 17.1028 57.2801 17.1028C58.1633 17.1028 58.8805 16.6741 58.8805 16.1461V9.85465C58.8805 9.32586 58.1633 8.89793 57.2801 8.89793Z" fill="white"/>
<path d="M63.4661 2.79595C62.5829 2.79595 61.8657 3.2246 61.8657 3.75267V22.2473C61.8657 22.7761 62.5829 23.204 63.4661 23.204C64.3493 23.204 65.0664 22.7761 65.0664 22.2473V3.75267C65.0664 3.2246 64.3493 2.79595 63.4661 2.79595Z" fill="white"/>
<path d="M69.6534 6.32098C68.7702 6.32098 68.0531 6.74963 68.0531 7.2777V18.7223C68.0531 19.2504 68.7702 19.679 69.6534 19.679C70.5366 19.679 71.2526 19.2504 71.2526 18.7223V7.2777C71.2526 6.74963 70.5366 6.32098 69.6534 6.32098Z" fill="white"/>
<path d="M75.8392 9.57008C74.956 9.57008 74.2389 9.99801 74.2389 10.5268V15.4739C74.2389 16.002 74.956 16.4306 75.8392 16.4306C76.7224 16.4306 77.4396 16.002 77.4396 15.4739V10.5268C77.4396 9.99801 76.7224 9.57008 75.8392 9.57008Z" fill="white"/>
<path d="M82.0266 1.71964C81.1434 1.71964 80.4275 2.14757 80.4275 2.67636V23.3243C80.4275 23.8524 81.1434 24.2811 82.0266 24.2811C82.9098 24.2811 83.627 23.8524 83.627 23.3243V2.67636C83.627 2.14757 82.9098 1.71964 82.0266 1.71964Z" fill="white"/>
<path d="M88.2136 7.59324C87.3304 7.59324 86.6133 8.02117 86.6133 8.54996V17.4508C86.6133 17.9788 87.3304 18.4075 88.2136 18.4075C89.0968 18.4075 89.8128 17.9788 89.8128 17.4508V8.54996C89.8128 8.02117 89.0968 7.59324 88.2136 7.59324Z" fill="white"/>
<path d="M94.3997 11.3445C93.5165 11.3445 92.7993 11.7724 92.7993 12.3012V13.6988C92.7993 14.2276 93.5165 14.6555 94.3997 14.6555C95.2829 14.6555 96 14.2276 96 13.6988V12.3012C96 11.7724 95.2829 11.3445 94.3997 11.3445Z" fill="white"/>
</svg>
